# xmcd
#
# Track frame offsets: 
#        150
#        8704
#        38097
#        54296
#        77333
#        100177
#        128787
#        153431
#        195464
#        210212
#        232918
#        248316
#
# Disc length: 4398 seconds
#
# Revision: 0
# Processed by: cddbd v1.5.2PL0 Copyright (c) Steve Scherf et al.
# Submitted via: ExactAudioCopy v1.0b3
#
DISCID=78112c0c
DTITLE=Kelly Bell Band - KBB @ 8 x10 2000-04-04
DYEAR=2000
DGENRE=Blues
TTITLE0=Piano Intro
TTITLE1=Down In The Bottom
TTITLE2=Talking In Your Sleep
TTITLE3=Home Grown Intro-
TTITLE4=Home grown
TTITLE5=Moving in with the neigbhoor
TTITLE6=Nothin Else Left For Me
TTITLE7=Bluesman - Aint Link It Used To Be
TTITLE8=Teases
TTITLE9=Manic Depression
TTITLE10=Say One Thing Intro-
TTITLE11=Say One Thing
EXTD=
EXTT0=
EXTT1=
EXTT2=
EXTT3=
EXTT4=
EXTT5=
EXTT6=
EXTT7=
EXTT8=
EXTT9=
EXTT10=
EXTT11=
PLAYORDER=
